Coordinates
datacolumns 11
datarows 80
range 1.15 1.94
inDegrees=yes
Units are S.I. units (second, meters, Newtons, ...)
If the header above contains a line with 'inDegrees', this indicates whether rotational values are in degrees (yes) or radians (no).
endheader
time	pelvis_tilt	pelvis_tx	pelvis_ty	hip_flexion_l	hip_flexion_r	knee_angle_l	knee_angle_r	ankle_angle_l	ankle_angle_r	lumbar
1.15	-25.39918681	0.12666143	0.78550728	77.97004457	77.97004457	-65.64670916	-65.64670916	12.81640012	12.81640012	-34.89274664
1.16	-25.4668435	0.1300202	0.78931709	77.32468473	77.32468473	-64.9535997	-64.9535997	12.66627965	12.66627965	-34.63040922
1.17	-25.71263778	0.13320629	0.79267114	76.8902796	76.8902796	-64.27006533	-64.27006533	12.65886106	12.65886106	-34.10777371
1.18	-25.9143597	0.13638371	0.7961318	76.40179481	76.40179481	-63.56107216	-63.56107216	12.61328926	12.61328926	-33.61583113
1.19	-26.05766718	0.1396064	0.79968396	75.85631632	75.85631632	-62.8569333	-62.8569333	12.5159407	12.5159407	-33.16883739
1.2	-26.15548113	0.1428777	0.8032709	75.26251575	75.26251575	-62.15496943	-62.15496943	12.37666539	12.37666539	-32.74618026
1.21	-26.23649167	0.1461295	0.80683606	74.66327716	74.66327716	-61.4535057	-61.4535057	12.23547064	12.23547064	-32.31214099
1.22	-26.11045469	0.14954293	0.81082996	73.83053812	73.83053812	-60.73136521	-60.73136521	11.85241976	11.85241976	-32.11901213
1.23	-26.26016896	0.15271016	0.81406257	73.33948478	73.33948478	-60.07035713	-60.07035713	11.83181445	11.83181445	-31.52698308
1.24	-26.33690187	0.15590988	0.81744034	72.76156471	72.76156471	-59.38710493	-59.38710493	11.7673976	11.7673976	-31.0049939
1.25	-26.10239168	0.1593712	0.82143017	71.83979663	71.83979663	-58.70366838	-58.70366838	11.472961	11.472961	-30.85367103
1.26	-26.21558721	0.1625079	0.82453235	71.33531339	71.33531339	-58.07001508	-58.07001508	11.47471148	11.47471148	-30.21730215
1.27	-25.9776918	0.1659367	0.82840772	70.41837819	70.41837819	-57.39416459	-57.39416459	11.29173041	11.29173041	-30.01179371
1.28	-26.06850135	0.16905758	0.83142741	69.90187527	69.90187527	-56.77116492	-56.77116492	11.30145278	11.30145278	-29.34873253
1.29	-25.77446013	0.17250279	0.83531106	68.9273149	68.9273149	-56.0930674	-56.0930674	11.14774115	11.14774115	-29.16393255
1.3	-25.64534672	0.17577166	0.83874319	68.15738606	68.15738606	-55.44150243	-55.44150243	11.0806897	11.0806897	-28.73687063
1.31	-25.7044467	0.17888845	0.84167892	67.61494501	67.61494501	-54.82238667	-54.82238667	11.09223769	11.09223769	-28.03173548
1.32	-25.66159294	0.18206722	0.84484988	66.941961	66.941961	-54.16118967	-54.16118967	11.06496359	11.06496359	-27.44584186
1.33	-25.20688548	0.18559162	0.8488879	65.8067704	65.8067704	-53.49514551	-53.49514551	10.88057474	10.88057474	-27.3751492
1.34	-25.0532255	0.18886834	0.85222493	65.01782456	65.01782456	-52.8437029	-52.8437029	10.81271543	10.81271543	-26.88295138
1.35	-25.10145734	0.1919314	0.8550436	64.48009243	64.48009243	-52.2281831	-52.2281831	10.8284327	10.8284327	-26.10192392
1.36	-24.70891921	0.19538716	0.85889904	63.40344717	63.40344717	-51.52499857	-51.52499857	10.65595096	10.65595096	-25.8828739
1.37	-24.74741954	0.19848237	0.86170412	62.85268318	62.85268318	-50.90609175	-50.90609175	10.66985784	10.66985784	-25.08144337
1.38	-24.37801335	0.20191912	0.86550281	61.79908852	61.79908852	-50.19078559	-50.19078559	10.51320524	10.51320524	-24.80344172
1.39	-24.40146027	0.20507211	0.86832828	61.21900831	61.21900831	-49.55297925	-49.55297925	10.52560353	10.52560353	-23.98304949
1.4	-23.95242747	0.20862607	0.87226833	60.0648617	60.0648617	-48.81727169	-48.81727169	10.35235223	10.35235223	-23.77458282
1.41	-23.70578963	0.21202481	0.87571572	59.15432796	59.15432796	-48.11753497	-48.11753497	10.27196229	10.27196229	-23.28789976
1.42	-23.43969532	0.21545014	0.87920134	58.21607129	58.21607129	-47.40466953	-47.40466953	10.18642175	10.18642175	-22.81777634
1.43	-23.15272474	0.21889165	0.8827205	57.25046921	57.25046921	-46.68348236	-46.68348236	10.09584879	10.09584879	-22.36641377
1.44	-22.85505426	0.2223357	0.8862479	56.26981349	56.26981349	-45.95101099	-45.95101099	10.00095981	10.00095981	-21.92548789
1.45	-22.54675569	0.22577491	0.88977823	55.27482629	55.27482629	-45.20957418	-45.20957418	9.90019818	9.90019818	-21.49418405
1.46	-22.22671661	0.2292064	0.89329839	54.26521144	54.26521144	-44.45859193	-44.45859193	9.79142381	9.79142381	-21.07113409
1.47	-22.1813595	0.23241323	0.89617625	53.58717745	53.58717745	-43.75350834	-43.75350834	9.78423577	9.78423577	-20.28979095
1.48	-21.56506624	0.23602744	0.90032887	52.21234303	52.21234303	-42.92907196	-42.92907196	9.55761245	9.55761245	-20.25084253
1.49	-21.49230255	0.23926053	0.90319427	51.49328858	51.49328858	-42.19973016	-42.19973016	9.53978866	9.53978866	-19.48944238
1.5	-20.86401672	0.24288875	0.90726291	50.10553129	50.10553129	-41.3701285	-41.3701285	9.30472818	9.30472818	-19.44638215
1.51	-20.49291216	0.24633553	0.9106948	49.02868248	49.02868248	-40.58895216	-40.58895216	9.17698821	9.17698821	-19.06090154
1.52	-20.11613479	0.24972175	0.91407019	47.95336504	47.95336504	-39.8057862	-39.8057862	9.04363199	9.04363199	-18.68212418
1.53	-19.74712581	0.2531327	0.91736893	46.88308995	46.88308995	-39.01966246	-39.01966246	8.91224803	8.91224803	-18.28109057
1.54	-19.70358992	0.25627725	0.9198701	46.2210524	46.2210524	-38.31100612	-38.31100612	8.91161677	8.91161677	-17.45813312
1.55	-18.98194526	0.2598915	0.92381788	44.7351543	44.7351543	-37.46668823	-37.46668823	8.6439551	8.6439551	-17.51494386
1.56	-18.58994983	0.26321805	0.92694368	43.66357464	43.66357464	-36.70119791	-36.70119791	8.5054645	8.5054645	-17.13792893
1.57	-18.20386003	0.26650897	0.92997195	42.60682378	42.60682378	-35.94396794	-35.94396794	8.36798368	8.36798368	-16.75673183
1.58	-17.82585433	0.26974949	0.93291973	41.57072806	41.57072806	-35.20214979	-35.20214979	8.23676484	8.23676484	-16.36701469
1.59	-17.44897564	0.27294673	0.93578111	40.54530928	40.54530928	-34.46901548	-34.46901548	8.10411405	8.10411405	-15.97857032
1.6	-17.0740277	0.27609803	0.93856257	39.53238591	39.53238591	-33.74696889	-33.74696889	7.97200247	7.97200247	-15.59159529
1.61	-16.70143022	0.27920341	0.94125952	38.53182578	38.53182578	-33.03536965	-33.03536965	7.84116352	7.84116352	-15.20494445
1.62	-16.32871164	0.28224775	0.94389019	37.54478935	37.54478935	-32.33787796	-32.33787796	7.7093041	7.7093041	-14.82202088
1.63	-15.96611016	0.28525048	0.94642861	36.57361215	36.57361215	-31.6423964	-31.6423964	7.57860845	7.57860845	-14.43523769
1.64	-15.59603458	0.28817758	0.94891933	35.60752773	35.60752773	-30.95739337	-30.95739337	7.44167269	7.44167269	-14.06470228
1.65	-15.23679145	0.29106668	0.95130842	34.65635544	34.65635544	-30.27229104	-30.27229104	7.30310466	7.30310466	-13.68559125
1.66	-14.88365847	0.29385692	0.95364838	33.7213869	33.7213869	-29.59005194	-29.59005194	7.1605959	7.1605959	-13.31446528
1.67	-14.5277614	0.29658005	0.95590787	32.78988678	32.78988678	-28.90746885	-28.90746885	7.0105275	7.0105275	-12.94962597
1.68	-14.46602985	0.29907572	0.95749862	32.21978349	32.21978349	-28.28904019	-28.28904019	6.99858893	6.99858893	-12.22284719
1.69	-13.9142397	0.30183172	0.96013916	31.00124929	31.00124929	-27.4525677	-27.4525677	6.73728552	6.73728552	-12.14393617
1.7	-13.78789259	0.30416113	0.96171056	30.4060802	30.4060802	-26.90823797	-26.90823797	6.69389919	6.69389919	-11.53074923
1.71	-13.17153589	0.30679642	0.9643052	29.15663486	29.15663486	-26.14556383	-26.14556383	6.39391847	6.39391847	-11.55094848
1.72	-12.84863193	0.30916451	0.96622632	28.28652627	28.28652627	-25.47068501	-25.47068501	6.24353043	6.24353043	-11.21281344
1.73	-12.52788267	0.31145768	0.96806937	27.42496368	27.42496368	-24.79856212	-24.79856212	6.09745787	6.09745787	-10.88812287
1.74	-12.21409847	0.31367914	0.96983994	26.57929157	26.57929157	-24.13590809	-24.13590809	5.95485202	5.95485202	-10.57007398
1.75	-11.90476704	0.31582353	0.97153404	25.7463457	25.7463457	-23.47690363	-23.47690363	5.81715798	5.81715798	-10.26095836
1.76	-11.86695175	0.31772993	0.97259673	25.27129921	25.27129921	-22.92145773	-22.92145773	5.81718604	5.81718604	-9.62816159
1.77	-11.30990569	0.31987425	0.97469107	24.12892419	24.12892419	-22.17210898	-22.17210898	5.55176594	5.55176594	-9.66120423
1.78	-11.02783744	0.32177633	0.97614317	23.35155389	23.35155389	-21.53363861	-21.53363861	5.42596207	5.42596207	-9.36672965
1.79	-10.75369176	0.32357624	0.97752467	22.58945602	22.58945602	-20.89648943	-20.89648943	5.29800237	5.29800237	-9.08625638
1.8	-10.49571735	0.32532287	0.9788076	21.8572214	21.8572214	-20.27429024	-20.27429024	5.17993907	5.17993907	-8.78993568
1.81	-10.47717116	0.326808	0.97955382	21.45124215	21.45124215	-19.75847209	-19.75847209	5.18746735	5.18746735	-8.22421914
1.82	-10.02199818	0.3285208	0.981145	20.46226967	20.46226967	-19.04968541	-19.04968541	4.95839479	4.95839479	-8.21240861
1.83	-10.00117345	0.32986971	0.98178227	20.06658506	20.06658506	-18.54408095	-18.54408095	4.96171309	4.96171309	-7.6834733
1.84	-9.94345873	0.33128515	0.98246153	19.59155681	19.59155681	-17.97978812	-17.97978812	4.94234138	4.94234138	-7.19487184
1.85	-9.78929213	0.33254948	0.98328825	19.0295088	19.0295088	-17.41821242	-17.41821242	4.87145084	4.87145084	-6.8727564
1.86	-9.21602044	0.33401744	0.98487913	17.91988944	17.91988944	-16.69575479	-16.69575479	4.56099771	4.56099771	-7.08565036
1.87	-9.21591617	0.3351063	0.98528493	17.57150479	17.57150479	-16.21385497	-16.21385497	4.57213611	4.57213611	-6.59874281
1.88	-8.83443063	0.33638347	0.98640995	16.72600512	16.72600512	-15.58127542	-15.58127542	4.36979057	4.36979057	-6.59626331
1.89	-8.64279101	0.33744938	0.98711869	16.14893258	16.14893258	-15.04482113	-15.04482113	4.28120469	4.28120469	-6.38573651
1.9	-8.64426522	0.33834481	0.98740404	15.84847585	15.84847585	-14.62240482	-14.62240482	4.30168814	4.30168814	-5.95131538
1.91	-8.23939967	0.33945674	0.988433	15.01221375	15.01221375	-14.03633606	-14.03633606	4.12203941	4.12203941	-6.03339243
1.92	-8.02554696	0.3404181	0.98905907	14.44864917	14.44864917	-13.55911501	-13.55911501	4.05506698	4.05506698	-5.89418731
1.93	-8.00863505	0.34123802	0.98928488	14.14993267	14.14993267	-13.17148168	-13.17148168	4.08053672	4.08053672	-5.52629197
1.94	-7.57232854	0.34223592	0.99026278	13.31880974	13.31880974	-12.64481852	-12.64481852	3.95169959	3.95169959	-5.69462467
